<?xml version="1.0" encoding="utf-8"?>
<!-- Generator: Adobe Illustrator 16.0.0, SVG Export Plug-In . SVG Version: 6.00 Build 0)  -->
<!DOCTYPE svg PUBLIC "-//W3C//DTD SVG 1.0//EN" "http://www.w3.org/TR/2001/REC-SVG-20010904/DTD/svg10.dtd">
<svg version="1.0" id="Layer_1" xmlns="http://www.w3.org/2000/svg" xmlns:xlink="http://www.w3.org/1999/xlink" x="0px" y="0px"
	 width="75px" height="95px" viewBox="0 0 75 95" enable-background="new 0 0 75 95" xml:space="preserve">
<g>
	<path fill="#C4CED4" d="M72.434,50.4c0,4.113-16.039,7.798-35.398,7.798c-19.358,0-34.906-3.686-35.052-7.798
		c-0.131-3.709,10.831-6.137,23.399-5.658c-8.166,1.228-16.406,2.384-16.406,4.591c0,3.332,12.378,5.685,28.059,5.685
		c15.681,0,28.279-2.353,28.279-5.685c0-2.15-7.561-3.429-16.65-4.591C61.385,44.066,72.27,46.822,72.434,50.4"/>
	<path fill="#C4CED4" d="M30.458,66.452l0.462,17.011l0.995-30.634c-0.402-13.457,2.333-35.55-3.349-51.827
		c-6.034,18.712-2.79,22.923-3.58,52.327l0.712,22.654l0.94-12.389c0.033-1.541,1.203-1.395,1.202-0.075l0.418,16.317l1.004-13.283
		C29.247,64.765,30.502,64.847,30.458,66.452"/>
	<path fill="#C4CED4" d="M48.953,57.743l-0.861,36.838l-0.584-21.695c-0.031-1.538-1.318-1.608-1.371,0l-0.709,16.369l-0.695-18.947
		c0.002-1.526-1.164-1.611-1.174,0.107l-0.693,13.511l-0.838-26.684l0.182-19.351c0.152-5.172-15.061-5.105-15.061-5.105
		s18.112,0.375,16.631-10.639c-1.082-8.029-30.884-5.328-30.884-5.328s8.426-2.759,18.992-3.783
		c11.847-1.15,18.994,1.699,19.38,7.412c0.684,10.106-12.406,11.577-12.406,11.577s10.33-2.006,10.348,4.269L48.953,57.743z"/>
	<g>
		<path fill="#FFFFFF" d="M73.018,49.815c-0.162-3.533-10.799-6.266-23.327-5.676l0.101-8.429c-0.014-5.23-7.188-4.707-9.578-4.389
			c2.785-0.5,12.221-2.835,11.639-11.458c-0.387-5.714-7.531-8.562-19.379-7.411c-0.201,0.02-0.396,0.044-0.596,0.064
			C31.32,8.294,30.469,4.196,29.15,0.419c-1.648,5.111-2.601,9.138-3.136,12.895c-7.339,1.226-12.536,2.922-12.536,2.922
			s5.718-0.519,12.236-0.426c-0.736,7.516,0.03,14.666-0.014,28.34c-12.453-0.433-23.264,1.985-23.132,5.666
			c0.112,3.223,9.687,6.184,23.141,7.313L26.282,75.4l0.942-12.39c0.031-1.539,1.201-1.395,1.201-0.074l0.417,16.316l1.004-13.281
			c-0.017-1.791,1.241-1.707,1.195-0.104l0.464,17.01l0.822-25.357c1.725,0.062,3.491,0.094,5.291,0.094
			c1.702,0,3.376-0.029,5.018-0.085l0.812,25.813l0.693-13.51c0.012-1.721,1.178-1.635,1.172-0.107l0.697,18.946l0.711-16.369
			c0.051-1.608,1.34-1.538,1.369,0l0.582,21.694l0.861-36.839l0.001-0.024C63.142,56.007,73.018,53.044,73.018,49.815z
			 M44.361,21.563c0.963,7.151-6.332,9.5-11.569,10.269c0.056-5.135-0.031-10.465-0.509-15.685
			C38.473,16.738,43.91,18.218,44.361,21.563z M9.56,48.749c0-2.182,8.064-3.337,16.14-4.551c-0.009,2.602-0.045,5.425-0.129,8.547
			l0.037,1.182C16.062,53.063,9.56,51.164,9.56,48.749z M32.431,54.345l0.068-2.099c-0.164-5.479,0.188-12.398,0.285-19.766
			c4.413,0.454,10.103,1.654,10.009,4.828l-0.161,17.042c-1.627,0.055-3.3,0.084-5.013,0.084
			C35.841,54.435,34.109,54.403,32.431,54.345z M49.574,53.936l0.115-9.719c8.891,1.146,16.209,2.418,16.209,4.532
			C65.898,51.173,59.236,53.076,49.574,53.936z"/>
	</g>
</g>
</svg>
